#!OML:ASF F:\VICON\USERDATA\INSTALL\rory3\rory3.ASF
:FULLY-SPECIFIED
:DEGREES
51
root -0.21985558091188773 18.315824515948766 13.3261466918346 -4.135996667654203 -0.07431799812698325 -5.443749560101059
lfemur -16.47773536268546 -5.36637231383647 -14.689465494140798
ltibia 58.03194421128025
lfoot -7.540068778390903 -5.610746464644935
ltoes -15.677305399411164
rfemur -5.9770446450987675 5.672552444423398 31.926911442674637
rtibia 28.14596379276965
rfoot -10.785742665774926 -3.9263447085583842
rtoes 9.285558975267467
lowerback 9.652577661661685 -0.27406837389488586 3.913005233106891
upperback 0.5171464629104944 0.44504524374964316 2.7891961849619493
thorax -5.589154901645952 0.1703364802080436 0.7262598140312486
lowerneck -15.821676752219643 -2.7608191553544468 -1.6250829304134025
upperneck 23.787678346731614 -3.2793671893640988 -0.48214172477611034
head 10.280916695170864 -1.7094923955146502 -0.2815879439321055
lclavicle -1.3863626910873972e-15 -1.8425807082360707e-15
lhumerus -31.545448046090975 3.0633829916973565 80.51307550960003
lradius 29.664651358934037
lwrist 4.67822301224298
lhand -27.476134692437405 24.37797845816727
lfingers 7.125019999999999
lthumb -0.5720876200095452 54.754393922137
rclavicle -1.3802680285486348e-15 -1.8374701046187102e-15
rhumerus -32.44846118672321 -25.7741563405349 -73.81561411494697
rradius 19.700719710109922
rwrist 11.367208654575247
rhand -17.493369629635048 22.372582333413472
rfingers 7.125019999999999
rthumb 8.576866266432912 -7.233352673859999
52
root -0.24790946412162018 18.319042582468814 15.711673671990155 -3.937172944182596 -0.9080359765634924 -5.431277754459786
lfemur -17.505380895206017 -5.732580195211728 -14.692341659642844
ltibia 55.32693157374582
lfoot -8.646950929799774 -5.018341295707378
ltoes -14.718708330207962
rfemur -4.915866711986931 6.815615184830682 32.062113391549985
rtibia 30.007647456504273
rfoot -10.735355294125807 -3.8134764799305874
rtoes 9.214755987031273
lowerback 9.550855113424344 0.25379905414296616 4.058350840543664
upperback 0.5505872900891106 1.1372030357526897 2.5268087066158795
thorax -5.534379567119474 0.4900639088002534 0.14543932680646554
lowerneck -15.730427762040357 -2.8225709481987526 -1.530986511875081
upperneck 23.895677195184284 -3.4397749510643303 -0.4550055533060875
head 10.283226800026968 -1.7690048244685106 -0.30968946392168945
lclavicle -1.3859796798944214e-15 -1.842248518487148e-15
lhumerus -31.972418114600213 4.1419081639086475 80.37697029329578
lradius 29.01167298426118
lwrist 4.520796334571481
lhand -27.166090504087084 24.22365710651092
lfingers 7.125019999999999
lthumb -0.3822924085157824 54.32789269113633
rclavicle -1.3807731846594625e-15 -1.8379534653895726e-15
rhumerus -30.775780609332106 -23.187858222774597 -75.83400700195766
rradius 21.01399248526136
rwrist 9.13417444911014
rhand -17.626710986245318 21.808651641974535
rfingers 7.125019999999999
rthumb 8.459838210002266 -7.820273783751793
53
root -0.28379493987503934 18.303190578493822 17.577620858137543 -3.5726199302854127 -0.8941569881223618 -5.547784668449278
lfemur -18.061254313877086 -5.971043168451512 -14.629971661833205
ltibia 51.31213424191687
lfoot -8.29584415071287 -4.028340190467934
ltoes -13.628490372687466
rfemur -4.41718852549635 7.297652841315772 32.32034331617009
rtibia 32.101808652939496
rfoot -10.1995459404465 -3.7892238783954033
rtoes 9.38429391056625
lowerback 9.513803632442391 0.5485116564128738 4.385941071551322
upperback 0.49538711564032983 1.5734888985122446 2.3329245384733808
thorax -5.580697122982706 0.6920978191322743 -0.5111336923724039
lowerneck -15.769685499657367 -2.8549877009550584 -1.4134426929946455
upperneck 23.979423140535683 -3.5382844486605607 -0.48095493960708685
head 10.292488803098726 -1.806001458000247 -0.3513843556393582
lclavicle -1.3859451969151607e-15 -1.842247221208782e-15
lhumerus -32.38224105465456 5.251835957900971 80.23899247808687
lradius 28.412597526346737
lwrist 4.0940486787022605
lhand -27.0324665660137 23.89345616377
lfingers 7.125019999999999
lthumb -0.2840166573422228 53.86284516440427
rclavicle -1.3816543940784764e-15 -1.8387904081964e-15
rhumerus -29.15342376019046 -20.486688737599543 -77.50890233548918
rradius 22.68091776842837
rwrist 6.519820683881435
rhand -17.85493605664116 21.1898253751451
rfingers 7.125019999999999
rthumb 8.223212701827944 -8.513436459504815
54
root -0.2081337849774907 18.0200623764953 19.140330419921348 -3.2015560676817367 -0.8427473050841237 -5.058897127331431
lfemur -17.78358030710909 -5.118203772255939 -14.660883536853014
ltibia 45.98779148765061
lfoot -7.758059192086192 -3.499337796794121
ltoes -13.52235546989804
rfemur -4.381579261840873 7.145692826056605 32.21965458320405
rtibia 34.40047177921765
rfoot -8.97183511755281 -3.8730720215477126
rtoes 9.451620905014032
lowerback 9.796720513073991 0.8126431806770857 4.2146126479509896
upperback 0.41048018482048854 1.873533114901571 2.148177204543913
thorax -5.646171414139291 0.8434477028530836 -1.1356167809382687
lowerneck -15.913711257507515 -2.8593744179176186 -1.2817511156211225
upperneck 23.941346441085837 -3.56815414240514 -0.5840653983399827
head 10.275020605283757 -1.8196558570912977 -0.4131800292723568
lclavicle -1.3870939022874019e-15 -1.8433397271853022e-15
lhumerus -32.771298155017746 6.260447878517018 80.13650560494598
lradius 27.87835369341694
lwrist 3.5520947495902777
lhand -27.04625080055971 23.479650855259067
lfingers 7.125019999999999
lthumb -0.29149846387861744 53.38923590892328
rclavicle -1.3825561974163407e-15 -1.8397342973598597e-15
rhumerus -27.67438967384916 -18.108683457496426 -78.81905782600234
rradius 24.55853197449334
rwrist 3.8811918851209968
rhand -18.139667448091934 21.00685212299161
rfingers 7.125019999999999
rthumb 7.96383976140683 -8.718771429566315
55
root -0.16688367011343974 17.640969687097996 18.910967201811054 -3.232309951908899 -1.4899870776422581 -6.351987282459248
lfemur -18.367960506674574 -3.2582019919209246 -13.023613482089996
ltibia 40.6873576226131
lfoot -7.485864081925011 -3.2168437140907686
ltoes -13.776901513809635
rfemur -3.6133154839259145 7.647219288475908 33.9335412071964
rtibia 35.25585895826724
rfoot -7.28744975965278 -4.264347961799621
rtoes 9.125329690733814
lowerback 10.663743742793452 1.2895539077273737 5.365298051376564
upperback 0.26609573714243456 2.5701782866056018 2.157533438809751
thorax -5.737426705092127 1.1575642226976373 -1.78447664449629
lowerneck -16.042422934258635 -2.858311517416462 -1.215360365862537
upperneck 23.786907260238753 -3.566163747511554 -0.6686006103426194
head 10.226443696184788 -1.8221658738601303 -0.46346056104314987
lclavicle -1.3881716045705121e-15 -1.8443533300258445e-15
lhumerus -33.13802910797709 7.135464129838671 80.09129516513131
lradius 27.398854372945983
lwrist 3.4394740578322676
lhand -27.056525897293188 23.134413438093414
lfingers 7.125019999999999
lthumb -0.352239606119206 52.961493066978434
rclavicle -1.3834629477877785e-15 -1.8406375178722074e-15
rhumerus -26.2942192186282 -16.180953435055386 -79.71131196786223
rradius 26.356585960853373
rwrist 1.536853073097535
rhand -18.45713756411975 21.322296324209542
rfingers 7.125019999999999
rthumb 7.721807597440648 -8.428874090865166
56
root -0.1232071191980747 17.437266051599075 19.09381469680242 -2.707121002193434 -2.0085586837717417 -7.352787557521648
lfemur -19.79315024778564 -1.782607507417689 -11.850465148894136
ltibia 35.37663292884965
lfoot -6.555231358408039 -3.540308386449796
ltoes -13.91343990381072
rfemur -2.358502918157697 7.775270023963169 35.01867659648899
rtibia 35.14115355909187
rfoot -5.479000506199702 -5.075124628500216
rtoes 7.955711460298395
lowerback 10.581808411969808 1.7509528578859692 6.013780096643264
upperback 0.31958464451161456 3.120742239566281 2.1728554172148478
thorax -5.430746589904643 1.396376216743831 -2.2004871429132855
lowerneck -16.233956127932593 -2.850068892667131 -1.1701610972690148
upperneck 23.67223393460828 -3.5398256573878433 -0.7501487841576769
head 10.20597121233074 -1.8169713087873642 -0.5109921801655961
lclavicle -1.3885252764907006e-15 -1.8446802284388235e-15
lhumerus -33.36609366627598 8.025303948067886 80.10891005268843
lradius 26.915708036033365
lwrist 3.7108355297100974
lhand -26.913594921331978 23.218201564990867
lfingers 7.125019999999999
lthumb -0.3488200687644831 52.8570485968896
rclavicle -1.3826048426758575e-15 -1.839807343221538e-15
rhumerus -25.134838500691778 -14.874837666687993 -80.24337351997669
rradius 27.97234921557382
rwrist -0.27984734358619345
rhand -18.743330609393766 21.918929253665144
rfingers 7.125019999999999
rthumb 7.474161548379661 -7.855583148080511
57
root -0.03967989167327324 17.459630563356363 19.301435254409196 -2.085704668850271 -2.116262712275628 -7.210286480409673
lfemur -20.74207625871592 -1.6903977152078942 -11.755146753920851
ltibia 29.53547075056915
lfoot -6.6495717421831175 -3.810386938302523
ltoes -15.097353933528995
rfemur -0.3862118459635706 7.147295963080979 34.57987842218135
rtibia 34.279422881807626
rfoot -3.782556022418727 -6.301282238184887
rtoes 6.180516320836029
lowerback 9.70487718574929 2.061472466377162 6.072623516820991
upperback 0.35936814178708976 3.4659648823176394 2.078809367962317
thorax -5.002802013874554 1.569772012434766 -2.3786160671470293
lowerneck -16.410806777277713 -2.836423140715774 -1.1152369387914325
upperneck 23.61092819584493 -3.5106483492021963 -0.8154817576927715
head 10.21022900596035 -1.8115539972336345 -0.5542712489675474
lclavicle -1.3883872118143317e-15 -1.8445314036368394e-15
lhumerus -33.73722639847673 8.585263935872433 80.11617042828121
lradius 26.5579166407491
lwrist 3.9234649942558244
lhand -26.743629334779143 23.556570522633663
lfingers 7.125019999999999
lthumb -0.2648950926539114 53.080073160512555
rclavicle -1.3826671352012561e-15 -1.8397558173891466e-15
rhumerus -24.28890284143197 -14.271950341653854 -80.57681395455714
rradius 29.317298865305155
rwrist -1.3855189831587786
rhand -18.982980325348862 22.62080571415683
rfingers 7.125019999999999
rthumb 7.272726152157924 -7.1331613600301065
58
root 0.04280345151070181 17.45696163426443 20.704561086943137 -1.7143732132447496 -1.7089416455670694 -6.817788485242742
lfemur -20.63589333124142 -2.139893211458375 -12.064806193262793
ltibia 24.446769346238703
lfoot -6.3083847912673505 -3.8919122391019716
ltoes -15.329859614597078
rfemur 1.7055073904008644 5.973773270672624 33.79633123224035
rtibia 33.47150558394227
rfoot -2.178742504872287 -7.662755395486319
rtoes 4.55367688288687
lowerback 8.385820490247735 1.9942713271520567 5.6902695609360725
upperback 0.2655683812109897 3.4856010560044246 1.878597995052836
thorax -4.773556546118487 1.6239169535810607 -2.3837583773595608
lowerneck -16.495238265288407 -2.8247768535408784 -1.0835263439303504
upperneck 23.49959380692789 -3.496965035111774 -0.8201893528513229
head 10.19887722835277 -1.8086098255683023 -0.5791748541977457
lclavicle -1.3875326879174309e-15 -1.8437272252835022e-15
lhumerus -34.32233261426906 8.694901867259222 80.07036081558967
lradius 26.390982569122713
lwrist 4.054044350085808
lhand -26.6573007612291 23.879359778449448
lfingers 7.125019999999999
lthumb -0.21520965548369808 53.36596659016149
rclavicle -1.3845743759647932e-15 -1.841401021987914e-15
rhumerus -23.650180095564416 -14.149056152615687 -80.68965299280646
rradius 30.194713798374018
rwrist -1.8791198548742418
rhand -19.17914007379038 23.193285965274885
rfingers 7.125019999999999
rthumb 7.142273043928397 -6.557474990607707
